/* XPM */
static char *_0a4898e77c74aa6a38b6e07d49eeb37Gx7x9dubpwS5mnHQ[] = {
/* columns rows colors chars-per-pixel */
"33 33 32 1 ",
"  c #81D7E4",
". c #80D8E4",
"X c #81D9E5",
"o c #82D8E5",
"O c #80DAE5",
"+ c #83D9E6",
"@ c #82DAE6",
"# c #87D9E4",
"$ c #87D9E5",
"% c #84DBE5",
"& c #86DAE5",
"* c #87DBE5",
"= c #85D8E6",
"- c #86D9E7",
"; c #84DAE7",
": c #87DBE6",
"> c #85DCE6",
", c #88DAE5",
"< c #88DAE6",
"1 c #89DBE6",
"2 c #89DBE7",
"3 c #88DCE6",
"4 c #88DCE7",
"5 c #8ADCE7",
"6 c #86D9E9",
"7 c #85DBE8",
"8 c #84DAE9",
"9 c #87DAE8",
"0 c #87DAEA",
"q c #86DCE9",
"w c #88DBE9",
"e c #8ADCE8",
/* pixels */
";;;;;;;;;+  +++OOO7OO7+7+OOO7O+.+",
";;;;;;;;;+ +....+O7OO+OO7O.++.+OO",
";;;;;;;;;++ ..++.++OO7OO+7+..+.O.",
";;;;;;;;++;   ..+++OO+77OO+.OO.+.",
";;;;;;;;;;++++ +.O+.OOOO7O+.++.O+",
";;;;;;;;;+;;+++ .+..++7OOO.+.O.+.",
";;;;;;;;;;;;++++++++..OOO7O7O.O++",
";;;;;;;;;;;w;++++...O++.+OOO++O.+",
";;;;;;;;;;;;+;;+++ O.OO++.OO7+++7",
";;;;;;;;;;;;;;;;++++++...+O.OOO.O",
";;;;;;;;;;;;;;;;++++.+OOOO+++OO+O",
";;;;;;;;;;+++++;+++++ +O+..O+O7O+",
";;;;;;;;;;+ ;++;>+7++++.+.+O+.OO7",
"w;;,;;;;;;+;+++;6+7+++++++...++OO",
",w;#;6+;;;+ +++;+7+76+++++O+.++.O",
",,,;,-;;;;;;;;;;7+7+7O+++..+OO.+O",
"w,;3,;;;;;;+;;;7+7+77+7+++OO+O+O.",
">3,,,,;;;;;;;;;67+7++7+7++O+++.++",
",3,,,;;,;+;;;7>>77+7++7+++++++.O+",
"3;,3,,,,w;;;;;;;77777++7++O;+++++",
",3#3,;,,,,;;;;;;+7777+7+;;;;+++++",
"3;**,,,,,;;,;;;;++77+7+7;;;;O++++",
"3#**;#,,,,,3*;+67+777+7+;;;;7+7++",
"5*;3<,w,w,w,;;+++++7+7+7;;;7+7+77",
"33w,,w,,<<<<,,66666w+;6;;;;;;;;;+",
"33,5,,w,<<<<w,6-6666+;;;;;;;;;;;7",
"w3eww,,,<<w,,w6w666;++;;;;;;;;;;+",
"35,e5,w,<<<,,,,6666++;;;;;;;;;;;7",
"<e<5,5,,w,,,,;,66w6+;;;;;;;;;;;;+",
"e<5wewwe,,,w,w,w,,;>;>>>;;;;;;;;7",
"<e,ewe5,e,w,,,,,,,#;;3>>;;;;;;;;+",
"e<e,5,ee,w,,,w,3,>,3,>>6>6;;;;;;7",
"<e<e<e<e<e<e<<,,,6,;3,3677777+7+7"
};
