/* XPM */
static char *_a1e9b06f5a046b89fe6288cc5e8ebbeECPIgDlO8JoSAC2i[] = {
/* columns rows colors chars-per-pixel */
"33 33 120 2 ",
"   c #050303",
".  c #0D0101",
"X  c #04050A",
"o  c #110101",
"O  c #1A0000",
"+  c #000F14",
"@  c #0A1215",
"#  c #240100",
"$  c #2E0402",
"%  c #340503",
"&  c #3A0602",
"*  c #320802",
"=  c #3A0804",
"-  c #13262D",
";  c #102633",
":  c #142D31",
">  c #1B3438",
",  c #56180D",
"<  c #581711",
"1  c #641B15",
"2  c #6F1F16",
"3  c #711F14",
"4  c #6A241A",
"5  c #77271C",
"6  c #7C261E",
"7  c #1B3240",
"8  c #1B3E40",
"9  c #1A4149",
"0  c #25484E",
"q  c #2B4D56",
"w  c #2C5459",
"e  c #32555B",
"r  c #235A61",
"t  c #35646C",
"y  c #5E686A",
"u  c #44757C",
"i  c #812518",
"p  c #89271A",
"a  c #832A1C",
"s  c #892C1D",
"d  c #AF2F16",
"f  c #AB2F1E",
"g  c #B42C15",
"h  c #BB2D16",
"j  c #B52C1A",
"k  c #BC2D19",
"l  c #A0321E",
"z  c #AD321E",
"x  c #BA3014",
"c  c #B1331C",
"v  c #BC3019",
"b  c #872A23",
"n  c #8F2821",
"m  c #922C23",
"M  c #9B2E27",
"N  c #8F3324",
"B  c #943024",
"V  c #9B3224",
"C  c #A32F20",
"Z  c #A92F20",
"A  c #A62F29",
"S  c #A53122",
"D  c #A93123",
"F  c #B43225",
"G  c #BC3320",
"H  c #B23229",
"J  c #C22C16",
"K  c #C32D1A",
"L  c #CB2E1C",
"P  c #D22E1C",
"I  c #D92E1C",
"U  c #CD301D",
"Y  c #D2301C",
"T  c #D8311E",
"R  c #C73223",
"E  c #CA3123",
"W  c #C93529",
"Q  c #D53224",
"!  c #D13D2F",
"~  c #D33F35",
"^  c #CD4132",
"/  c #CF4739",
"(  c #D24135",
")  c #D74F43",
"_  c #D65446",
"`  c #DC5345",
"'  c #DF604F",
"]  c #E76156",
"[  c #EC6051",
"{  c #E66D5F",
"}  c #EF6B5C",
"|  c #DF776C",
" . c #DE796C",
".. c #DF7871",
"X. c #E56F63",
"o. c #E57066",
"O. c #E87467",
"+. c #E5766C",
"@. c #E37A6D",
"#. c #E9796D",
"$. c #E17970",
"%. c #E87B71",
"&. c #4F8084",
"*. c #619CA4",
"=. c #71A1AB",
"-. c #6AAEB7",
";. c #6EB2BB",
":. c #76C0CB",
">. c #77C6D3",
",. c #7AC4D1",
"<. c #78CCD6",
"1. c #7DCFDD",
"2. c #7DD2DE",
"3. c #7ED8E3",
"4. c #83CDD8",
"5. c #83D6E2",
"6. c #83DAE6",
"7. c #89DBE7",
"8. c #85DBE8",
"9. c #89DCE9",
/* pixels */
"6.6.6.8.8.6.8.6.8.6.2.8   o % 1 2 1 = O X 9 1.6.6.6.6.6.6.3.6.6.3.",
"6.6.8.6.8.6.8.6.,.+ % N F K K L L k K K v M % X 2.3.6.3.3.6.6.3.6.",
"8.6.6.8.6.8.6.; * A J K L K K K L K E E k K K c = > 6.3.6.6.3.6.3.",
"8.6.8.6.6.6.  a K K K K L L L L L L L L L L L K K N . <.6.3.3.6.6.",
"6.8.6.6.6.o D J K J K L L L L L L L L K L L L U K K H o 3.6.5.3.6.",
"6.8.8.6.o D K J K L L K L L L L L R ' X.X.` K L L L L F . 5.3.6.3.",
"8.6.8.  V K K K K L L L L P P P ~ |  .|  . .O.R K L K K D   3.6.6.",
"8.6.u 6 K K K J L E L L L P Y E o.+.@.@... .$.{ L K L L K n w 6.3.",
"7.6.# k J k K K L L L L P P P ` @.$.@.@.$.@... .W L L L K h $ 8.6.",
"6.5.M K K K K K L L L P L I P { #.@.@.@.@. .@. ./ U L L K K C 0 6.",
"9.*.k k k J K K L L P L P P I ] @.#.#.@.@. .@.@.^ L L L K K k # 6.",
",.2 k k J K R L L L L P P P I ~ +.#.%.#.#.$.@.+.E L L L L K J 6 r ",
"+ Z k K K K K L L L L P P I I I } #.#.#.@.%.#._ L L L L L K K H   ",
". j k k K K K K L L Y L Y P I P Q [ #.#.#.O._ U P U L K K J J j o ",
"O k k k K K K L L L L P Y P I I I T Q ( ! P P P P L L U K K k k # ",
"$ v k k k K K L L L L P P P Y I I T I T P P P P U L L L R K K J & ",
"* h k k K K K K L L L P L P L I I I I I P P P P P L U K K K J J = ",
"$ g j k K K K K L J L L P P Y I I P Y I I P L L L L L L K K K K = ",
"O j k k v k K K K L L L L Y L P Y Y Y Y P L E L L L K K K L k k # ",
". d k k k K K K K K U L L L P P U P Y L P L L L L L K K k k K k o ",
"> f k k k k J K K J K U L L L L L L L L L L L L L K K K K K k j X ",
";.4 j k k k k J K U K K K L L L L L L L L L L L K K K K k k k 5 -.",
"9.o j k k k v J K J K K K L L L L L U L L L K K K K K k k K k O 6.",
"7.e m j k h k k k K K K K K K K K L K L K K K K K K K k k h l - 8.",
"7.5.# g k g h k k K k J K K K K K K K K K J K L J k k k k j $ 6.6.",
"9.7.t 5 j j k k k k k k K K k J K K K K K K k k J k k k k p : 6.6.",
"9.7.9.  V g j k k k k k h K K K v K J k k k k k k k k j l   7.6.8.",
"9.7.7.7.o S g j k h k k k k k k k v k K k k k k k k k Z O 4.8.6.6.",
"9.7.7.9.:.. Z g j j k k j k h k k k k k v k k k k j A o 1.6.6.7.6.",
"7.7.7.9.9.7.  b g g j j j k j h h k x k j k j g g m   5.6.8.6.6.9.",
"7.7.7.7.7.7.7.q * V d k k j j j k j j j j j d S % > 6.8.6.6.6.6.6.",
"7.7.7.7.7.7.7.7.7.&.y p f g g j j g g d z m = @ 8.8.9.6.6.8.6.8.6.",
"7.9.7.7.7.7.7.9.7.7.7.*.  O = , 1 < & O X w 7.8.6.8.8.8.8.6.6.8.8."
};
