/* XPM */
static char *resize_1674372522684290939f3215bb163a843e3a9874e7bf8d91d8d1674372830[] = {
/* columns rows colors chars-per-pixel */
"33 33 97 2 ",
"   c #930600",
".  c #980500",
"X  c #960D00",
"o  c #9C0D01",
"O  c #9D1101",
"+  c #9E1900",
"@  c #A40D01",
"#  c #AA0D01",
"$  c #A30F08",
"%  c #B10E04",
"&  c #A31202",
"*  c #AB1302",
"=  c #A51B01",
"-  c #AC1A00",
";  c #A4140B",
":  c #AA1408",
">  c #A41B09",
",  c #AC180E",
"<  c #B31501",
"1  c #BC1700",
"2  c #B41B03",
"3  c #BC1C01",
"4  c #B51609",
"5  c #B41C0A",
"6  c #BC1C09",
"7  c #AF1B11",
"8  c #B51E13",
"9  c #B81E16",
"0  c #AD2102",
"q  c #AE2209",
"w  c #B32203",
"e  c #BD2301",
"r  c #B22A00",
"t  c #BE2903",
"y  c #B7200F",
"u  c #BC230B",
"i  c #BF3703",
"p  c #BC2313",
"a  c #BD2C12",
"s  c #B72319",
"d  c #BD2218",
"f  c #B63112",
"g  c #BD3616",
"h  c #BE3816",
"j  c #C11C03",
"k  c #C21E09",
"l  c #C22203",
"z  c #C82003",
"x  c #C42C01",
"c  c #C82C02",
"v  c #C2230A",
"b  c #C32B0B",
"n  c #C82C0C",
"m  c #C43402",
"M  c #CB3403",
"N  c #C43A02",
"B  c #CB3B03",
"V  c #C5350B",
"C  c #CA340B",
"Z  c #C63C0E",
"A  c #CC3B0A",
"S  c #D33E04",
"D  c #D33C0B",
"F  c #C42611",
"G  c #C52B13",
"H  c #CA2D13",
"J  c #C72F19",
"K  c #CC2F1A",
"L  c #C53412",
"P  c #CC3413",
"I  c #C53A13",
"U  c #CC3A12",
"Y  c #C73118",
"T  c #CC331A",
"R  c #C53A19",
"E  c #CA3B1B",
"W  c #D23614",
"Q  c #D13B13",
"!  c #D2331E",
"~  c #CE3120",
"^  c #C74201",
"/  c #CD4304",
"(  c #D14204",
")  c #D2420A",
"_  c #DB440F",
"`  c #D34A0D",
"'  c #CC4413",
"]  c #D24313",
"[  c #DB4713",
"{  c #D74B14",
"}  c #DB4B15",
"|  c #D64518",
" . c #D4491A",
".. c #DA4D1B",
"X. c #DC5313",
"o. c #DC511D",
"O. c #E2501D",
/* pixels */
"@ x A N N / i N ^ i i N N B A w O i i B M B M B B B M B m N i = = ",
"* I | [ ` X.` X.` ` { o...} ] r 0 ' ' { [ } [ [ _ _ } O...| ' = q ",
"@ n U ] B ) ^ ( / A A A C N C w = Z Z ] D _ S D D D D D V Z i = q ",
"o L U Q M m t m m t t e 2 e V e = C I Q C c c M c c l w w t L - q ",
"@ T P U m x x x 3 e e l w t C e < T U P n c l l j e l e e x P w w ",
"@ Y b c l l l 3 1 3 3 e 3 e L w * P b b j j 3 3 3 3 3 e e v V - w ",
"& T u b l j j 1 j j j 3 2 t U v < P u l 3 l j j z z 3 j 3 b H 5 w ",
"@ T u l j j j j j j j 6 3 t P w 2 G u 3 3 j 3 j 3 3 3 j 3 b P 2 5 ",
"@ G 2 * 3 z 1 j j j j k u 3 b 2 # G 3 < k l 1 j j j j l 3 v v * = ",
"@ Y 2 < 3 l 3 j k j k 1 3 e V w * G < < 3 k 3 v k l 3 3 3 v C 2 2 ",
"& G < * < 3 < v k 6 k % 2 w I u * b * % < 3 3 v v v 3 2 2 b T 2 5 ",
"o u * @ # < < 6 6 4 6 # * 3 T t * 6 # @ # < < 2 2 3 < # < v Y 2 2 ",
"@ 5 * @ @ * * * : # : # * 2 Y u * 8 # @ # # * < * < * * # y G - * ",
"@ 9 : * @ * @ $ $ $ : $ @ * a 5 * 8 * * @ # * # @ & # & @ 2 p - = ",
"@ 8 $ $ o @ o o & o $ $ $ o 5 * & 8 $ : @ $ $ @ @ @ @ * @ & 5 * : ",
"@ , @ @ o o O o & . o $ @ . - & @ ; o $ . o @ @ & @ @ = . X - O : ",
"X O & X = O X = O & O O . X = X X > X X O O O o X = O O O O + X X ",
"O a E I L V V U I I R ~ E R R 0 + g h R I I g Z V I L I R g f = > ",
"O Z o.{ { { ` } } { | .. . .] r = I  .o...} [ } } } { .. . .Z 0 q ",
"O m A ^ ( / S B S B N B m N N w = N N / ) ( S B ( S N B N N N = w ",
"= m C M B m x x m x t t w t B r - A C C M M c c c x l e w x M - q ",
"@ P W Q C e x x w l l w 2 e C e * T W W c z l c l l l l 3 b U 2 2 ",
"@ K J G v 2 v 3 3 3 3 6 3 u J 3 < T K K k j 1 j j j k k 3 F ! < y ",
"# ~ F 6 k 3 b 3 6 6 6 v 6 F K 3 2 K k k 6 k 1 k k 3 j k < G ! < 5 ",
"# F 3 v l l 3 3 l 3 3 3 l e W 3 < T v 3 3 3 j 3 j j l 3 v b n 2 w ",
"# F 3 3 3 l 3 3 3 3 k 3 3 e C w * n 2 2 3 3 3 3 j 3 3 3 e e C * = ",
"# n 3 < 2 l 3 3 3 l l 3 3 3 C 3 - n * < 3 l 3 j l e l 2 w t C * w ",
"# H < # < e 3 3 3 3 k < 3 e W 3 * b # * 2 3 k k 3 l 3 < 3 v U - w ",
"@ p * # * * * 6 6 4 4 # < u E u * p # @ % % % 6 6 3 < < 3 u E 5 * ",
"@ 9 # # # # # 5 4 : # $ * 5 Y y & d # # % # % % % % % % < 5 J 5 : ",
"@ 9 * $ # # @ # # @ # # * @ p 2 # d # # % # % % % # # # < * F * : ",
"@ s ; @ @ & o @ @ o & & & . 5 : @ 9 @ # % @ @ # # @ # @ # & 5 * : ",
"o ; O o O X O X O X X O X O O > O , o o o o O O o O O O o o O & ; "
};
